<?xml version="1.0" encoding="utf-8"?>
<svg width="35" height="35" viewBox="0 0 35 35" fill="none" xmlns="http://www.w3.org/2000/svg">
  <g>
    <g transform="translate(3.281 1.823)">
      <path d="M5.39675 1.90735e-06L14.2908 1.90735e-06L14.2915 1.90735e-06C15.2607 -4.19617e-05 16.096 -7.9155e-05 16.7647 0.0898504C17.4818 0.186246 18.1689 0.403625 18.7265 0.961058C19.2838 1.51851 19.5013 2.20576 19.5977 2.92279C19.6875 3.59099 19.6875 4.42522 19.6875 5.39351L19.6875 11.3773C19.6875 12.3454 19.6875 13.1798 19.5977 13.848C19.5013 14.5651 19.2838 15.2523 18.7265 15.8098C18.1689 16.3672 17.4818 16.5846 16.7647 16.681C16.0973 16.7708 15.2641 16.7708 14.2973 16.7708L5.39033 16.7708C4.42353 16.7708 3.59022 16.7708 2.92274 16.681C2.20576 16.5846 1.51851 16.3672 0.961059 15.8098C0.403626 15.2523 0.186247 14.5651 0.0898514 13.848C-9.87053e-05 13.1791 -5.53131e-05 12.3436 2.86102e-06 11.3741L2.86102e-06 5.39671C-5.53131e-05 4.42721 -9.87053e-05 3.59173 0.0898514 2.92279C0.186247 2.20576 0.403626 1.51851 0.961059 0.961058C1.51851 0.403625 2.20576 0.186246 2.92274 0.0898504C3.59158 -7.9155e-05 4.42679 -4.19617e-05 5.39609 1.90735e-06L5.39675 1.90735e-06L5.39675 1.90735e-06ZM3.21421 2.25784C2.73982 2.32162 2.59113 2.4246 2.50785 2.50785C2.4246 2.59117 2.32163 2.73977 2.25784 3.21417C2.18984 3.72007 2.1875 4.40665 2.1875 5.46875L2.1875 11.3021C2.1875 12.3642 2.18984 13.0508 2.25784 13.5567C2.32163 14.0311 2.4246 14.1797 2.50785 14.2629C2.59113 14.3462 2.73982 14.4492 3.21421 14.513C3.72008 14.581 4.40663 14.5833 5.46875 14.5833L14.2188 14.5833C15.2809 14.5833 15.9674 14.581 16.4733 14.513C16.9477 14.4492 17.0963 14.3462 17.1796 14.2629C17.2629 14.1797 17.3658 14.0311 17.4297 13.5567C17.4977 13.0508 17.5 12.3642 17.5 11.3021L17.5 5.46875C17.5 4.40665 17.4977 3.72007 17.4297 3.21417C17.3658 2.73977 17.2629 2.59117 17.1796 2.50785C17.0963 2.4246 16.9477 2.32162 16.4733 2.25784C15.9674 2.18984 15.2809 2.1875 14.2188 2.1875L5.46875 2.1875C4.40663 2.1875 3.72008 2.18984 3.21421 2.25784L3.21421 2.25784Z" fill="#000000" fill-rule="evenodd" transform="translate(4.375 10.208)" />
      <path d="M1.09375 0C0.489694 0 0 0.489694 0 1.09375C0 1.69781 0.489694 2.1875 1.09375 2.1875L8.38542 2.1875C8.98946 2.1875 9.47917 1.69781 9.47917 1.09375C9.47917 0.489694 8.98946 0 8.38542 0L1.09375 0L1.09375 0Z" fill="#000000" fill-rule="evenodd" transform="translate(5.833 5.833)" />
      <path d="M12.6782 6.70552e-07L15.7593 6.70552e-07C18.4395 -2.78351e-05 20.5622 -4.25086e-05 22.2235 0.223331C23.9333 0.453193 25.3173 0.937535 26.4087 2.02889C27.4999 3.12027 27.9843 4.50415 28.2142 6.21393C28.4375 7.87526 28.4375 9.99804 28.4375 12.6781L28.4375 18.676C28.4375 21.3561 28.4375 23.4789 28.2142 25.1402C27.9843 26.85 27.4999 28.2339 26.4087 29.3253C25.3173 30.4166 23.9333 30.9009 22.2235 31.1309C20.5622 31.3542 18.4395 31.3542 15.7595 31.3542L12.6782 31.3542C9.99811 31.3542 7.87526 31.3542 6.21393 31.1309C4.50415 30.9009 3.12027 30.4166 2.02889 29.3253C0.937535 28.2339 0.453193 26.85 0.223331 25.1402C-4.23667e-05 23.4789 -2.78671e-05 21.3561 6.38709e-07 18.676L6.38709e-07 12.6781C-2.78671e-05 9.99808 -4.23667e-05 7.87528 0.223331 6.21393C0.453193 4.50415 0.937535 3.12027 2.02889 2.02889C3.12027 0.937535 4.50415 0.453193 6.21393 0.223331C7.87528 -4.25086e-05 9.99809 -2.78351e-05 12.6782 6.70552e-07L12.6782 6.70552e-07ZM6.50541 2.39132C5.03819 2.58857 4.19287 2.95851 3.57569 3.57569C2.95851 4.19287 2.58857 5.03819 2.39132 6.50541C2.18982 8.00408 2.1875 9.97964 2.1875 12.7604L2.1875 18.5937C2.1875 21.3745 2.18982 23.3501 2.39132 24.8488C2.58857 26.3159 2.95851 27.1613 3.57569 27.7785C4.19287 28.3956 5.03819 28.7656 6.50541 28.9628C8.00408 29.1643 9.97964 29.1667 12.7604 29.1667L15.6771 29.1667C18.4578 29.1667 20.4334 29.1643 21.9322 28.9628C23.3993 28.7656 24.2446 28.3956 24.8618 27.7785C25.479 27.1613 25.849 26.3159 26.0461 24.8488C26.2477 23.3501 26.25 21.3745 26.25 18.5937L26.25 12.7604C26.25 9.97964 26.2477 8.00408 26.0461 6.50541C25.849 5.03819 25.479 4.19287 24.8618 3.57569C24.2446 2.95851 23.3993 2.58857 21.9322 2.39132C20.4334 2.18982 18.4578 2.1875 15.6771 2.1875L12.7604 2.1875C9.97964 2.1875 8.00408 2.18982 6.50541 2.39132L6.50541 2.39132Z" fill="#000000" fill-rule="evenodd" transform="translate(-0 -0)" />
    </g>
  </g>
</svg>