<svg xmlns="http://www.w3.org/2000/svg" id="graduation-cap" viewBox="0 0 64 64">
  <path d="M37.86,28.19v7.84c-3.19.92-5.86,2.58-5.86,5.57,0-7.46-16.61-6.64-16.61-6.64v-11.31l16.62,7.01,5.85-2.47Z" style="stroke-width:0;fill:#233266"></path>
  <polygon points="15.39 23.65 11.61 22.06 32.01 12.94 52.39 22.06 48.61 23.66 37.86 28.19 32.01 30.66 15.39 23.65" style="stroke-width:0;fill:#034f9a"></polygon>
  <path d="M48.61,23.66v11.3s-5.97-.29-10.75,1.07v-7.84l10.75-4.53Z" style="stroke-width:0;fill:#233266"></path>
  <path d="M41.5507812,50.7353516l-2.6918945-7.8422852v-16.7197266c0-.2504883-.0942383-.4921875-.2636719-.6767578l-5.8588867-6.3735352c-.3735352-.4057617-1.0068359-.4335938-1.4130859-.0595703-.4067383.3740234-.4331055,1.0063477-.0595703,1.4130859l5.5952148,6.0864258v16.3012695l-3.1801758,7.8188477c-.1254883.3085938-.0893555.6591797.0966797.9350586.1855469.2763672.496582.4418945.8295898.4418945h6c.3232422,0,.6259766-.15625.8139648-.4189453.1875-.2626953.2368164-.6000977.1318359-.9057617Z" style="fill:#f7911e;stroke-width:0"></path>
</svg>
