<?xml version="1.0" encoding="utf-8"?>
<svg width="24" height="24" viewBox="0 0 24 24" fill="none" xmlns="http://www.w3.org/2000/svg">
  <g>
    <rect width="24" height="24" />
    <path id="Vector" d="M3 0C2.20435 0 1.44129 0.31607 0.87868 0.87868C0.316071 1.44129 0 2.20435 0 3L0 19C0 19.5523 0.447715 20 1 20C1.55229 20 2 19.5523 2 19L2 3C2 2.73478 2.10536 2.48043 2.29289 2.29289C2.48043 2.10536 2.73478 2 3 2L7 2C7.26522 2 7.51957 2.10536 7.70711 2.29289C7.89464 2.48043 8 2.73478 8 3L8 19C8 19.5523 8.44772 20 9 20C9.55229 20 10 19.5523 10 19L10 3C10 2.20435 9.68393 1.44129 9.12132 0.87868C8.55871 0.31607 7.79565 0 7 0L3 0L3 0Z" fill="#2A0267" fill-rule="evenodd" transform="translate(7 1)" />
    <path id="Vector" d="M3 0C1.34315 0 0 1.34315 0 3L0 13C0 14.6569 1.34315 16 3 16L19 16C20.6569 16 22 14.6569 22 13L22 3C22 1.34315 20.6569 0 19 0L3 0L3 0ZM2 3C2 2.44772 2.44772 2 3 2L19 2C19.5523 2 20 2.44772 20 3L20 13C20 13.5523 19.5523 14 19 14L3 14C2.44772 14 2 13.5523 2 13L2 3L2 3Z" fill="#2A0267" fill-rule="evenodd" transform="translate(1 5)" />
  </g>
</svg>