<?xml version="1.0" encoding="utf-8"?>
<svg width="35" height="35" viewBox="0 0 35 35" fill="none" xmlns="http://www.w3.org/2000/svg">
  <g>
    <g transform="translate(3.281 1.823)">
      <path d="M1.09377 0C0.48968 0 0 0.489708 0 1.09375C0 1.69779 0.48968 2.1875 1.09377 2.1875L6.9271 2.1875C7.53114 2.1875 8.02085 1.69779 8.02085 1.09375C8.02085 0.489708 7.53114 0 6.9271 0L1.09377 0L1.09377 0Z" fill="#959595" fill-rule="evenodd" transform="translate(10.209 16.042)" />
      <path d="M7.39423 4.41188C7.88717 1.89716 10.1014 0 12.7607 0L15.6774 0C18.3368 0 20.551 1.89718 21.0439 4.4119C25.3388 5.51464 28.3755 9.36095 28.4368 13.8101C28.4378 13.8782 28.4378 13.953 28.4378 14.0793L28.4378 18.5688C28.4381 18.585 28.4381 18.6013 28.4378 18.6175L28.4378 22.0573C28.4378 25.6586 25.9365 28.7769 22.421 29.5581C17.0189 30.7584 11.4192 30.7584 6.01711 29.5581C2.50155 28.7769 0.000273438 25.6586 0.000273438 22.0573L0.000273438 18.6175C-9.11459e-05 18.6013 -9.11459e-05 18.585 0.000273438 18.5688L0.000273438 14.0791C0.000273438 13.9529 0.000273438 13.8781 0.00120665 13.8101C0.0625587 9.36093 3.09929 5.5146 7.39423 4.41188L7.39423 4.41188ZM9.86511 3.92341C10.4177 2.8904 11.5078 2.1875 12.7607 2.1875L15.6774 2.1875C16.9304 2.1875 18.0203 2.89042 18.573 3.92343C15.6871 3.48211 12.7509 3.48209 9.86511 3.92341L9.86511 3.92341ZM26.2503 14.0891L26.2503 17.8742C18.5523 21.089 9.88572 21.089 2.18777 17.8742L2.18777 14.0891C2.18777 13.95 2.18779 13.8914 2.1885 13.8403C2.23689 10.3311 4.66506 7.30412 8.08024 6.49562C8.12981 6.48388 8.18714 6.47111 8.32291 6.44095C8.44576 6.41365 8.50399 6.4007 8.56145 6.3882C12.2895 5.57716 16.1484 5.57716 19.8766 6.3882C19.9341 6.4007 19.9923 6.41365 20.1151 6.44095C20.2508 6.47111 20.3082 6.48388 20.3577 6.49562C23.773 7.30412 26.2011 10.3311 26.2496 13.8403C26.2503 13.8914 26.2503 13.95 26.2503 14.0891L26.2503 14.0891ZM2.18777 22.0573L2.18777 20.2315C8.26081 22.576 14.8505 23.0812 21.1461 21.747L21.1461 22.9688C21.1461 23.5728 21.6358 24.0625 22.2399 24.0625C22.8439 24.0625 23.3336 23.5728 23.3336 22.9688L23.3336 21.2058C24.3165 20.9269 25.2898 20.6022 26.2503 20.2315L26.2503 22.0573C26.2503 24.6334 24.4611 26.8638 21.9465 27.4226C16.8569 28.5536 11.5812 28.5536 6.49164 27.4226C3.97694 26.8638 2.18777 24.6334 2.18777 22.0573L2.18777 22.0573Z" fill="#959595" fill-rule="evenodd" transform="translate(0 0)" />
    </g>
  </g>
</svg>