<?xml version="1.0" encoding="UTF-8"?>
<!DOCTYPE svg PUBLIC "-//W3C//DTD SVG 1.1//EN" "http://www.w3.org/Graphics/SVG/1.1/DTD/svg11.dtd">
<!-- Creator: CorelDRAW 2018 (64-Bit) -->
<svg xmlns="http://www.w3.org/2000/svg" xml:space="preserve" width="6.07984in" height="1.65122in" version="1.1" style="shape-rendering:geometricPrecision; text-rendering:geometricPrecision; image-rendering:optimizeQuality; fill-rule:evenodd; clip-rule:evenodd"
viewBox="0 0 6079.84 1651.22"
 xmlns:xlink="http://www.w3.org/1999/xlink">
 <defs>
  <style type="text/css">
   <![CDATA[
    .fil0 {fill:white}
   ]]>
  </style>
 </defs>
 <g id="Layer_x0020_1">
  <metadata id="CorelCorpID_0Corel-Layer"/>
  <g id="_2174202774128">
   <polygon class="fil0" points="-0,599.3 361.62,535.27 361.62,1632.28 -0,1633.06 "/>
   <path class="fil0" d="M1209.43 521.07c120.31,0 216.62,37.87 288.94,113.56 72.33,75.71 108.49,177.76 108.49,306.2l0 691.45 -358.9 0 0 -588.04c0,-62.18 -16.9,-111.19 -50.69,-147.02 -33.81,-35.83 -79.1,-53.74 -135.86,-53.74 -59.48,1.35 -108.48,20.97 -147.02,58.81 -38.53,37.85 -61.17,87.87 -67.94,150.05l0 579.93 -360.92 0 0 -1032.38 360.92 -64.63 0 178.44c39.22,-63.53 89.57,-111.52 151.07,-143.96 61.52,-32.44 132.14,-48.67 211.91,-48.67z"/>
   <path class="fil0" d="M2161.91 517.02l0 70.97 0 239.28 0 805.01 -358.9 0 0 -805.01 0 -239.28 0 -64.89c0,-110.6 39.71,-262.42 115.38,-331.74 175.99,-161.25 264.3,-140.44 460.94,-144.02l0.31 339.19c-87.67,0.61 -217.74,20.85 -217.74,130.5z"/>
   <polygon class="fil0" points="2442.44,66.8 2803.38,2.57 2803.38,1632.28 2442.44,1632.28 "/>
   <path class="fil0" d="M3296.23 533.22c169.93,-38.9 325.19,-4.46 439.59,75.01 114.43,79.48 190.16,216.63 220,393.74l10.96 65.11 -724.99 163.49c30.32,55.39 61.56,79.6 110.02,101.71 48.4,22.12 102.25,26.34 161.5,12.8 45.03,-10.32 86.47,-29.3 124.18,-56.91 10.45,-7.62 20.92,-15.37 30.07,-24.66l26.12 -26.52 269.48 98.72c-40.23,72.91 -95.03,133.9 -164.43,183.01 -69.4,49.09 -152.39,84.7 -248.96,106.81 -112.02,25.65 -214.92,26.24 -308.63,1.59 -93.71,-24.6 -171.94,-71.77 -234.65,-141.44 -62.72,-69.63 -106.17,-157.25 -130.35,-262.85 -24.48,-106.88 -23.58,-206.37 2.75,-298.45 26.33,-92.1 67.45,-180.42 139.67,-243.71 72.17,-63.28 169.52,-122.72 277.66,-147.44zm297.57 423.61c-13.85,-60.52 -42.72,-105.08 -86.52,-133.69 -43.81,-28.57 -94.71,-36.23 -152.64,-22.95 -54.08,12.39 -95.35,40.79 -123.78,85.27 -28.44,44.46 -41.38,98.92 -38.86,163.37l401.8 -92z"/>
   <polygon class="fil0" points="3877.89,1632.29 4267.47,1076.27 3892.09,541.41 4288.28,541.41 4480.82,814.21 4670.21,541.41 5051.91,541.41 4681.72,1073.44 5068.12,1632.29 4671.65,1632.29 4466.76,1330.24 4263.94,1632.29 "/>
   <rect class="fil0" transform="matrix(7.19695 -1.17255 -0 7.18185 1637.72 717.08)" width="102.99" height="48.17"/>
   <rect class="fil0" transform="matrix(4.84344 -1.12803 1.12803 4.84344 3109.53 1010.71)" width="116.4" height="15.65"/>
   <polygon class="fil0" points="4.93,62.8 359.4,0 359.4,430.51 4.93,493.3 "/>
   <polygon class="fil0" points="-0,599.3 361.62,535.27 361.62,1632.28 -0,1633.06 "/>
   <path class="fil0" d="M1209.43 521.07c120.31,0 216.62,37.87 288.94,113.56 72.33,75.71 108.49,177.76 108.49,306.2l0 691.45 -358.9 0 0 -588.04c0,-62.18 -16.9,-111.19 -50.69,-147.02 -33.81,-35.83 -79.1,-53.74 -135.86,-53.74 -59.48,1.35 -108.48,20.97 -147.02,58.81 -38.53,37.85 -61.17,87.87 -67.94,150.05l0 579.93 -360.92 0 0 -1032.38 360.92 -64.63 0 178.44c39.22,-63.53 89.57,-111.52 151.07,-143.96 61.52,-32.44 132.14,-48.67 211.91,-48.67z"/>
   <path class="fil0" d="M2161.91 517.02l0 70.97 0 239.28 0 805.01 -358.9 0 0 -805.01 0 -239.28 0 -64.89c0,-110.6 39.71,-262.42 115.38,-331.74 175.99,-161.25 264.3,-140.44 460.94,-144.02l0.31 339.19c-87.67,0.61 -217.74,20.85 -217.74,130.5z"/>
   <polygon class="fil0" points="2442.44,66.8 2803.38,2.57 2803.38,1632.28 2442.44,1632.28 "/>
   <path class="fil0" d="M3296.23 533.22c169.93,-38.9 325.19,-4.46 439.59,75.01 114.43,79.48 190.16,216.63 220,393.74l10.96 65.11 -724.99 163.49c30.32,55.39 61.56,79.6 110.02,101.71 48.4,22.12 102.25,26.34 161.5,12.8 45.03,-10.32 86.47,-29.3 124.18,-56.91 10.45,-7.62 20.92,-15.37 30.07,-24.66l26.12 -26.52 269.48 98.72c-40.23,72.91 -95.03,133.9 -164.43,183.01 -69.4,49.09 -152.39,84.7 -248.96,106.81 -112.02,25.65 -214.92,26.24 -308.63,1.59 -93.71,-24.6 -171.94,-71.77 -234.65,-141.44 -62.72,-69.63 -106.17,-157.25 -130.35,-262.85 -24.48,-106.88 -23.58,-206.37 2.75,-298.45 26.33,-92.1 67.45,-180.42 139.67,-243.71 72.17,-63.28 169.52,-122.72 277.66,-147.44zm297.57 423.61c-13.85,-60.52 -42.72,-105.08 -86.52,-133.69 -43.81,-28.57 -94.71,-36.23 -152.64,-22.95 -54.08,12.39 -95.35,40.79 -123.78,85.27 -28.44,44.46 -41.38,98.92 -38.86,163.37l401.8 -92z"/>
   <polygon class="fil0" points="3877.89,1632.29 4267.47,1076.27 3892.09,541.41 4288.28,541.41 4480.82,814.21 4670.21,541.41 5051.91,541.41 4681.72,1073.44 5068.12,1632.29 4671.65,1632.29 4466.76,1330.24 4263.94,1632.29 "/>
   <rect class="fil0" transform="matrix(7.19695 -1.17255 -0 7.18185 1637.72 717.08)" width="102.99" height="48.17"/>
   <rect class="fil0" transform="matrix(4.84344 -1.12803 1.12803 4.84344 3109.53 1010.71)" width="116.4" height="15.65"/>
   <polygon class="fil0" points="4.93,62.8 359.4,0 359.4,430.51 4.93,493.3 "/>
   <path class="fil0" d="M5823 1097.43c0,189 -153.2,342.2 -342.19,342.2 -189.01,0 -334.98,-153.2 -334.98,-342.2 0,-228.56 169.32,-363.22 343.02,-359.69 168.31,3.45 334.15,138.15 334.15,359.69zm-87.89 -2.28c0,139.94 -113.45,253.39 -253.37,253.39 -139.94,0 -248.02,-113.45 -248.02,-253.39 0,-169.26 125.37,-268.94 254,-266.31 124.62,2.54 247.4,102.28 247.4,266.31z"/>
   <path class="fil0" d="M6079.84 541.48l0 1092.89 -312.92 0 0 -70.71c-85.58,55.39 -187.59,87.56 -297.07,87.56 -150.98,0 -285.19,-61.18 -382.1,-160.22 -97.43,-99.52 -156.66,-236.62 -156.66,-387.37l0.52 -1.01 0.11 -12.92c3.48,-171.63 70.12,-309.65 169.5,-405.37 100.72,-97.05 234.38,-149.7 370.28,-149.7l1.02 0.52 9.68 0.07c100.02,2.03 199.34,32.71 284.73,88.45l0 -22.75 312.92 -59.44zm-348.57 558.09c0,143.46 -116.32,259.78 -259.76,259.78 -143.48,0 -254.28,-116.32 -254.28,-259.78 0,-173.54 128.53,-275.72 260.41,-273.02 127.74,2.6 253.63,104.85 253.63,273.02z"/>
  </g>
 </g>
</svg>
