<?xml version="1.0" encoding="UTF-8"?>
<!DOCTYPE svg PUBLIC "-//W3C//DTD SVG 1.1//EN" "http://www.w3.org/Graphics/SVG/1.1/DTD/svg11.dtd">
<!-- Creator: CorelDRAW 2018 (64-Bit) -->
<svg xmlns="http://www.w3.org/2000/svg" xml:space="preserve" width="5.76341in" height="3.24938in" version="1.1" style="shape-rendering:geometricPrecision; text-rendering:geometricPrecision; image-rendering:optimizeQuality; fill-rule:evenodd; clip-rule:evenodd"
viewBox="0 0 5763.4 3249.38"
 xmlns:xlink="http://www.w3.org/1999/xlink">
 <defs>
  <style type="text/css">
   <![CDATA[
    .fil0 {fill:white}
   ]]>
  </style>
 </defs>
 <g id="Layer_x0020_1">
  <metadata id="CorelCorpID_0Corel-Layer"/>
  <path class="fil0" d="M259.02 0l5245.36 0c142.46,0 259.02,116.56 259.02,259.02l0 2731.34c0,142.46 -116.56,259.02 -259.02,259.02l-5245.36 0c-142.46,0 -259.02,-116.56 -259.02,-259.02l0 -2731.34c0,-142.46 116.56,-259.02 259.02,-259.02zm5166.63 1950.53l0 914.58 -261.87 0 0 -59.18c-71.62,46.35 -156.98,73.27 -248.61,73.27 -126.35,0 -238.66,-51.2 -319.76,-134.08 -81.54,-83.28 -131.1,-198.01 -131.1,-324.17l0.43 -0.85 0.09 -10.81c2.91,-143.63 58.68,-259.13 141.85,-339.24 84.29,-81.21 196.14,-125.27 309.86,-125.27l0.85 0.43 8.11 0.06c83.7,1.7 166.81,27.37 238.28,74.02l0 -19.04 261.87 -49.74zm-291.7 467.04c0,40.52 -11.1,78.44 -30.4,110.91 -37.73,58.61 -103.54,97.43 -178.42,97.43 -117.11,0 -207.56,-94.94 -207.56,-212.05 0,-141.65 104.92,-225.06 212.56,-222.86 13.49,0.28 26.96,1.93 40.19,4.87 88.07,22.91 163.63,102.52 163.63,221.7zm-1551 445.8l326.03 -465.31 -314.14 -447.59 331.54 0 161.13 228.29 158.49 -228.29 319.42 0 -309.79 445.23 323.35 467.67 -331.78 0 -171.46 -252.77 -169.73 252.77 -323.07 0zm-486.76 -919.76c142.2,-32.55 272.13,-3.73 367.87,62.77 95.76,66.51 159.14,181.28 184.11,329.5l9.18 54.49 -606.71 136.81c25.37,46.35 51.52,66.61 92.07,85.12 40.5,18.51 85.57,22.04 135.15,10.71 37.68,-8.63 72.36,-24.52 103.92,-47.63 8.74,-6.38 17.51,-12.87 25.16,-20.64l21.86 -22.19 225.51 82.62c-33.66,61.01 -79.52,112.05 -137.6,153.15 -58.07,41.08 -127.52,70.88 -208.34,89.38 -93.74,21.47 -179.85,21.96 -258.27,1.33 -78.42,-20.59 -143.89,-60.06 -196.37,-118.36 -52.48,-58.27 -88.84,-131.6 -109.08,-219.97 -20.49,-89.44 -19.74,-172.7 2.3,-249.76 22.04,-77.07 56.45,-150.98 116.89,-203.94 60.39,-52.95 141.87,-102.7 232.36,-123.39zm-85.37 383.08l299.96 -69.86 18.89 -4.4c-13.32,-28.07 -32.28,-50.14 -56.87,-66.2 -36.67,-23.91 -79.26,-30.32 -127.74,-19.2 -45.26,10.37 -79.79,34.14 -103.58,71.36 -16.32,25.5 -26.54,54.94 -30.67,88.31zm-629.12 -773.4l302.05 -53.76 0 1363.83 -302.05 0 0 -1310.07zm-234.76 376.76l0 59.39 0 36.57 181.61 -29.59 0 289.5 -181.61 29.59 0 547.84 -300.35 0 0 -498.91 -138.31 22.54 0 -289.5 138.31 -22.54 0 -85.5 0 -54.3c0,-92.56 33.23,-219.6 96.55,-277.62 147.28,-134.94 221.18,-117.53 385.74,-120.53l0.26 283.85c-73.37,0.51 -182.21,17.45 -182.21,109.2zm-1809.2 68.85l302.63 -53.58 0 918.03 -302.63 0.65 0 -865.11zm4.13 -448.97l296.63 -52.55 0 360.27 -296.63 52.55 0 -360.27zm1007.98 383.51c100.68,0 181.28,31.69 241.81,95.03 60.52,63.36 90.79,148.76 90.79,256.24l0 578.64 -300.35 0 0 -492.1c0,-52.04 -14.14,-93.05 -42.42,-123.03 -28.3,-29.98 -66.19,-44.98 -113.69,-44.98 -49.78,1.13 -90.79,17.55 -123.03,49.22 -32.24,31.67 -51.19,73.54 -56.85,125.57l0 485.31 -302.04 0 0 -863.94 302.04 -54.09 0 149.33c32.82,-53.17 74.96,-93.33 126.42,-120.48 51.48,-27.15 110.58,-40.73 177.33,-40.73z"/>
 </g>
</svg>
